PathFileType	4	(X/Y/Z)	Run_500 02
DataRate	CameraRate	NumFrames	NumMarkers	Units	OrigDataRate	OrigDataStartFrame	OrigNumFrames
120	120	4	42	mm	120	6	128
Frame#	Time	LASI			RASI			LPSI			RPSI			RTH1			RTH2			RTH3			LTH1			LTH2			LTH3			RTB1			RTB2			LTB1			LTB2			LTB3			RCAL			RTOE			RMT5			LCAL			LTOE			LMT5			LACR			RACR			CLAV			C7			RUA1			RUA2			RUA3			RLEL			RMEL			LUA1			LUA2			LUA3			LLEL			LMEL			RFAsuperior			RFAradius			RFAulna			LFAsuperior			LFAradius			LFAulna			RTB3		
		X1	Y1	Z1	X2	Y2	Z2	X3	Y3	Z3	X4	Y4	Z4	X5	Y5	Z5	X6	Y6	Z6	X7	Y7	Z7	X8	Y8	Z8	X9	Y9	Z9	X10	Y10	Z10	X11	Y11	Z11	X12	Y12	Z12	X13	Y13	Z13	X14	Y14	Z14	X15	Y15	Z15	X16	Y16	Z16	X17	Y17	Z17	X18	Y18	Z18	X19	Y19	Z19	X20	Y20	Z20	X21	Y21	Z21	X22	Y22	Z22	X23	Y23	Z23	X24	Y24	Z24	X25	Y25	Z25	X26	Y26	Z26	X27	Y27	Z27	X28	Y28	Z28	X29	Y29	Z29	X30	Y30	Z30	X31	Y31	Z31	X32	Y32	Z32	X33	Y33	Z33	X34	Y34	Z34	X35	Y35	Z35	X36	Y36	Z36	X37	Y37	Z37	X38	Y38	Z38	X39	Y39	Z39	X40	Y40	Z40	X41	Y41	Z41	X42	Y42	Z42	

6	  0.050000	935.600853	1042.675202	-787.709763	945.440143	1056.597900	-527.494934	762.357540	1093.106076	-683.082496	756.909827	1090.247538	-598.459087	942.756888	909.783022	-468.980675	1057.487562	869.166252	-481.738637	1076.166540	744.309555	-502.096605	811.768762	844.304195	-825.740564	820.948803	713.542251	-811.596058	716.772693	626.937442	-783.946297	1164.920336	530.072345	-597.400103	1102.025535	491.074553	-531.900441	655.851326	394.229777	-716.096513	573.567647	342.918940	-757.038406	520.213514	246.667487	-683.810726	866.681113	348.448527	-631.023562	1045.049321	196.420742	-624.489264	967.423361	214.984233	-542.053014	346.957482	202.199420	-660.030774	535.317099	 64.548530	-635.921840	457.520003	 66.546404	-720.343561	1005.299222	1510.667293	-812.226031	910.353612	1543.798114	-485.264581	994.170317	1473.295503	-597.803999	887.283978	1559.558167	-670.818625	828.391005	1486.580688	-423.214397	777.941209	1413.512892	-426.620846	711.931352	1459.665317	-431.712502	595.457893	1377.947913	-405.170095	597.603099	1368.291856	-488.061098	1013.511253	1416.560314	-880.046247	1032.011649	1349.886902	-872.324583	943.304923	1322.854512	-903.048640	990.065554	1171.885383	-966.374173	927.581800	1145.357842	-907.463232	656.298610	1293.905273	-374.511517	766.783938	1154.066684	-412.026946	716.444801	1139.051592	-361.050851	1068.802188	1199.476266	-908.354432	1140.918499	1257.146413	-754.828827	1182.091461	1202.899764	-779.244645	1050.969829	407.555539	-605.401146	
7	  0.058333	940.570701	1045.864896	-787.358524	948.324914	1063.560398	-527.905740	766.886522	1098.317263	-685.817235	764.344545	1096.016223	-600.944703	945.775768	918.167632	-469.224824	1059.163495	873.961650	-481.028089	1077.617658	747.904245	-505.362971	806.118861	852.334773	-826.253906	808.687300	721.867346	-810.365609	699.796437	642.053655	-783.414093	1180.401969	528.846137	-595.756666	1121.699079	483.560600	-531.148867	630.789476	410.078503	-717.749905	547.153854	360.547572	-759.358798	497.402805	260.468434	-688.452490	904.400995	317.434029	-632.438232	1097.287188	185.780798	-626.055900	1017.755808	194.924921	-543.796270	328.549405	221.721158	-662.551325	497.519990	 63.909669	-636.513243	421.521742	 73.475196	-722.074011	1005.970495	1518.209577	-809.364938	907.397193	1549.680226	-484.774252	992.154574	1480.056613	-596.006526	886.345858	1564.586184	-670.207598	823.845256	1494.872590	-424.803873	772.751120	1422.320754	-428.473186	707.669612	1469.027116	-438.051181	589.770221	1388.354345	-412.267871	594.425763	1378.757185	-495.057633	1014.918509	1424.269299	-877.334818	1032.968060	1357.529351	-869.401432	943.825423	1330.276793	-900.501738	990.864736	1178.426283	-962.348195	927.703362	1152.643282	-903.881456	649.067695	1304.053303	-380.495329	760.821074	1163.680518	-415.765314	709.107818	1148.339684	-366.457657	1068.553396	1208.329036	-904.090154	1137.015028	1270.285022	-750.494582	1179.057303	1214.790650	-771.998093	1080.660756	395.619755	-605.321552	
8	  0.066667	945.178553	1049.206248	-786.912454	950.978257	1069.728273	-528.401558	771.366564	1103.572608	-688.511114	770.491637	1101.732516	-603.426555	947.601676	924.820042	-469.729885	1060.082152	876.840630	-480.555575	1077.553060	750.068375	-508.804753	800.839443	860.786624	-827.157677	797.096912	730.396035	-809.643732	684.331845	657.149782	-782.069613	1194.781882	526.996588	-594.294126	1140.769761	475.759118	-530.189089	608.159726	425.866265	-718.852096	523.371554	378.001259	-761.003746	476.399746	274.331350	-692.479276	942.780852	287.240805	-633.037457	1149.000569	176.505129	-627.924089	1068.433716	176.108113	-545.598082	313.228112	242.358734	-665.623284	461.251923	 65.430869	-637.915025	387.021109	 82.788024	-723.677279	1006.588525	1525.362235	-806.469269	904.739983	1555.094559	-484.343987	990.347879	1486.148145	-594.249090	885.536818	1569.279849	-669.619894	819.629608	1502.584443	-426.368019	767.827466	1430.603992	-430.171367	703.681823	1477.733821	-444.135769	584.431820	1397.935801	-419.002208	591.450958	1388.169620	-501.609474	1016.364260	1431.749950	-874.691889	1033.855987	1364.914339	-866.677000	944.382123	1337.745985	-898.479153	991.362926	1184.785449	-958.720271	927.365214	1159.822082	-900.776644	642.353045	1313.491375	-386.068710	755.515939	1172.687114	-418.960537	702.520925	1157.045790	-371.255538	1068.036204	1216.632519	-900.133107	1133.158586	1282.631332	-746.696089	1175.754052	1225.927805	-765.269820	1109.824174	383.841864	-604.846875	
9	  0.075000	949.180448	1052.746348	-786.232842	953.249095	1074.496805	-528.994349	775.634395	1108.858258	-691.035117	774.946892	1107.113039	-605.795280	947.659972	928.470971	-470.681175	1059.841342	876.847477	-480.484923	1075.384517	750.007917	-512.025342	796.251851	869.622790	-828.515468	786.776863	739.043479	-809.786377	671.489902	671.734213	-779.699787	1207.190158	524.035788	-592.966157	1158.604498	467.416752	-528.885897	589.365897	441.106019	-719.070118	503.711813	394.828089	-761.620366	457.843066	288.383822	-695.342770	982.168570	258.354144	-632.395754	1199.639417	169.746982	-630.119417	1119.545887	159.564474	-547.434425	301.528580	264.431590	-669.063388	427.477954	 70.754999	-640.443537	354.985833	 95.958355	-725.199820	1007.088480	1531.860890	-803.582444	902.546260	1559.735646	-483.968050	988.887691	1491.175806	-592.573125	884.896322	1573.408288	-669.055332	815.969330	1509.276851	-427.828167	763.407256	1437.910667	-431.624665	700.200994	1485.271687	-449.701137	579.695469	1406.116792	-425.131061	588.858376	1395.846088	-507.421614	1017.802637	1438.795956	-872.217716	1034.593412	1371.812057	-864.274948	945.021595	1345.216859	-897.382512	991.365058	1190.775975	-955.712731	926.291117	1166.751313	-898.428266	636.516800	1321.737848	-390.939134	751.266388	1180.613379	-421.292154	697.173002	1164.769732	-374.989956	1067.086288	1223.973464	-896.666488	1129.407798	1293.577946	-743.724980	1172.028063	1235.690816	-759.376494	1138.002042	372.329775	-603.734606	
